<svg width="28" height="28" viewBox="0 0 28 28" fill="none" xmlns="http://www.w3.org/2000/svg">
<path d="M14 26.6665C14 27.0346 14.2988 27.3349 14.6666 27.3168C21.7207 26.9694 27.3334 21.1401 27.3334 13.9998C27.3334 6.63604 21.3638 0.666504 14 0.666504C6.63622 0.666504 0.666687 6.63604 0.666687 13.9998C0.666687 20.1666 4.85321 25.3556 10.5391 26.8796C10.9462 26.9888 11.3334 26.6724 11.3334 26.2509V16.6665H10C9.26363 16.6665 8.66669 16.0696 8.66669 15.3332C8.66669 14.5968 9.26365 13.9998 10 13.9998H11.3334V11.3332C11.3334 9.12404 13.1242 7.33317 15.3334 7.33317H16.6667C17.4031 7.33317 18 7.93013 18 8.6665C18 9.40289 17.4031 9.99984 16.6667 9.99984H15.3334C14.597 9.99984 14 10.5968 14 11.3332V13.9998H16.6667C17.4031 13.9998 18 14.5968 18 15.3332C18 16.0696 17.4031 16.6665 16.6667 16.6665H14V26.6665Z" fill="white"/>
</svg>
