<svg width="24" height="24" viewBox="0 0 24 24" fill="none" xmlns="http://www.w3.org/2000/svg">
<path fill-rule="evenodd" clip-rule="evenodd" d="M6.16665 0.333496C2.94499 0.333496 0.333313 2.94517 0.333313 6.16683V17.8335C0.333313 21.0551 2.94499 23.6668 6.16665 23.6668H17.8333C21.0549 23.6668 23.6666 21.0551 23.6666 17.8335V6.16683C23.6666 2.94517 21.0549 0.333496 17.8333 0.333496H6.16665ZM12 17.8335C15.2216 17.8335 17.8333 15.2218 17.8333 12.0002C17.8333 8.77851 15.2216 6.16683 12 6.16683C8.77832 6.16683 6.16665 8.77851 6.16665 12.0002C6.16665 15.2218 8.77832 17.8335 12 17.8335ZM20.1666 5.00016C20.1666 5.64449 19.6443 6.16683 19 6.16683C18.3556 6.16683 17.8333 5.64449 17.8333 5.00016C17.8333 4.35584 18.3556 3.8335 19 3.8335C19.6443 3.8335 20.1666 4.35584 20.1666 5.00016Z" fill="white"/>
</svg>
